<?xml version="1.0" encoding="UTF-8"?>
<svg xmlns="http://www.w3.org/2000/svg" viewBox="0 0 512 512" fill="none" role="img" aria-label="AI-GateWay cloud sprite">
  <defs>
    <clipPath id="ip8-clip"><rect width="512" height="512" rx="114"/></clipPath>
    <linearGradient id="ip8-bg" x1="18%" y1="0%" x2="82%" y2="100%">
      <stop offset="0%" stop-color="#4A6A88"/>
      <stop offset="100%" stop-color="#2E4860"/>
    </linearGradient>
    <radialGradient id="ip8-skin" cx="42%" cy="32%" r="70%">
      <stop offset="0%" stop-color="#FFFEFB"/>
      <stop offset="60%" stop-color="#F0E8DC"/>
      <stop offset="100%" stop-color="#D8CDBE"/>
    </radialGradient>
    <filter id="ip8-blur" x="-40%" y="-40%" width="180%" height="180%">
      <feGaussianBlur stdDeviation="16"/>
    </filter>
  </defs>
  <g clip-path="url(#ip8-clip)">
    <rect width="512" height="512" fill="url(#ip8-bg)"/>
    <ellipse cx="256" cy="504" rx="180" ry="40" fill="#162028" opacity="0.3" filter="url(#ip8-blur)"/>
    <ellipse cx="150" cy="430" rx="108" ry="118" fill="url(#ip8-skin)"/>
    <ellipse cx="362" cy="430" rx="108" ry="118" fill="url(#ip8-skin)"/>
    <ellipse cx="256" cy="348" rx="148" ry="136" fill="url(#ip8-skin)"/>
    <ellipse cx="256" cy="456" rx="176" ry="130" fill="url(#ip8-skin)"/>
    <ellipse cx="210" cy="300" rx="64" ry="30" fill="#FFFFFF" opacity="0.22"/>
    <circle cx="204" cy="348" r="13.5" fill="#2A2118"/>
    <circle cx="308" cy="348" r="13.5" fill="#2A2118"/>
    <circle cx="209" cy="343" r="4" fill="#FFF8F0" opacity="0.85"/>
    <circle cx="313" cy="343" r="4" fill="#FFF8F0" opacity="0.85"/>
    <ellipse cx="176" cy="384" rx="20" ry="11" fill="#E8A090" opacity="0.4"/>
    <ellipse cx="336" cy="384" rx="20" ry="11" fill="#E8A090" opacity="0.4"/>
    <path d="M234 388 C246 404 266 404 278 388" stroke="#2A2118" stroke-width="5" stroke-linecap="round"/>
  </g>
</svg>
